# Exported from Wings 3D 1.5.4
mtllib TrafficCone.mtl
o cone1
#138 vertices, 128 faces
v 0.68800000 -1.28226123 3.4638958e-18
v 0.55660369 -1.28226123 0.40439625
v 0.21260369 -1.28226123 0.65432688
v -0.21260369 -1.28226123 0.65432688
v -0.55660369 -1.28226123 0.40439625
v -0.68800000 -1.28226123 8.7719596e-17
v -0.55660369 -1.28226123 -0.40439625
v -0.21260369 -1.28226123 -0.65432688
v 0.21260369 -1.28226123 -0.65432688
v 0.55660369 -1.28226123 -0.40439625
v 8.4047158e-2 0.91495077 -6.1063834e-2
v 3.2103158e-2 0.91495077 -9.8803359e-2
v -3.2103158e-2 0.91495077 -9.8803359e-2
v -8.4047158e-2 0.91495077 -6.1063834e-2
v -0.10388800 0.91495077 1.3245659e-17
v -8.4047158e-2 0.91495077 6.1063834e-2
v -3.2103158e-2 0.91495077 9.8803359e-2
v 3.2103158e-2 0.91495077 9.8803359e-2
v 8.4047158e-2 0.91495077 6.1063834e-2
v 0.10388800 0.91495077 5.2304827e-19
v 7.6877120e-2 0.91495077 3.6761838e-18
v 6.2194897e-2 0.91495077 -4.5187237e-2
v 2.3756337e-2 0.91495077 -7.3114486e-2
v -2.3756337e-2 0.91495077 -7.3114486e-2
v -6.2194897e-2 0.91495077 -4.5187237e-2
v -7.6877120e-2 0.91495077 8.5159556e-18
v -6.2194897e-2 0.91495077 4.5187237e-2
v -2.3756337e-2 0.91495077 7.3114486e-2
v 2.3756337e-2 0.91495077 7.3114486e-2
v 6.2194897e-2 0.91495077 4.5187237e-2
v 0.45280624 -0.53801730 -2.7648599e-17
v 0.36632794 -0.53801730 -0.26615283
v 0.13992482 -0.53801730 -0.43064432
v -0.13992482 -0.53801730 -0.43064432
v -0.36632794 -0.53801730 -0.26615283
v -0.45280624 -0.53801730 8.5765723e-19
v -0.36632794 -0.53801730 0.26615283
v -0.13992482 -0.53801730 0.43064432
v 0.13992482 -0.53801730 0.43064432
v 0.36632794 -0.53801730 0.26615283
v 0.29215342 -0.18365523 0.21226188
v 0.11159268 -0.18365523 0.34344694
v -0.11159268 -0.18365523 0.34344694
v -0.29215342 -0.18365523 0.21226188
v -0.36112148 -0.18365523 2.7254275e-18
v -0.29215342 -0.18365523 -0.21226188
v -0.11159268 -0.18365523 -0.34344694
v 0.11159268 -0.18365523 -0.34344694
v 0.29215342 -0.18365523 -0.21226188
v 0.36112148 -0.18365523 -2.0008848e-17
v 0.17717416 0.36564777 0.12872456
v 6.7674506e-2 0.36564777 0.20828071
v -6.7674506e-2 0.36564777 0.20828071
v -0.17717416 0.36564777 0.12872456
v -0.21899930 0.36564777 5.6206915e-18
v -0.17717416 0.36564777 -0.12872456
v -6.7674506e-2 0.36564777 -0.20828071
v 6.7674506e-2 0.36564777 -0.20828071
v 0.17717416 0.36564777 -0.12872456
v 0.21899930 0.36564777 -8.1663319e-18
v 0.43218257 -0.45830673 -2.5930105e-17
v 0.34964305 -0.45830673 -0.25403054
v 0.13355176 -0.45830673 -0.41103005
v -0.13355176 -0.45830673 -0.41103005
v -0.34964305 -0.45830673 -0.25403054
v -0.43218257 -0.45830673 1.2777954e-18
v -0.34964305 -0.45830673 0.25403054
v -0.13355176 -0.45830673 0.41103005
v 0.13355176 -0.45830673 0.41103005
v 0.34964305 -0.45830673 0.25403054
v 0.29006039 9.0996271e-2 -1.4087590e-17
v 0.23466379 9.0996271e-2 -0.17049322
v 8.9633590e-2 9.0996271e-2 -0.27586383
v -8.9633590e-2 9.0996271e-2 -0.27586383
v -0.23466379 9.0996271e-2 -0.17049322
v -0.29006039 9.0996271e-2 4.1730595e-18
v -0.23466379 9.0996271e-2 0.17049322
v -8.9633590e-2 9.0996271e-2 0.27586383
v 8.9633590e-2 9.0996271e-2 0.27586383
v 0.23466379 9.0996271e-2 0.17049322
v 0.11968453 0.64029927 8.6955898e-2
v 4.5715421e-2 0.64029927 0.14069760
v -4.5715421e-2 0.64029927 0.14069760
v -0.11968453 0.64029927 8.6955898e-2
v -0.14793821 0.64029927 7.0683236e-18
v -0.11968453 0.64029927 -8.6955898e-2
v -4.5715421e-2 0.64029927 -0.14069760
v 4.5715421e-2 0.64029927 -0.14069760
v 0.11968453 0.64029927 -8.6955898e-2
v 0.14793821 0.64029927 -2.2450740e-18
v 0.57117760 -0.84281883 2.8757263e-18
v 0.45435520 -0.40337643 2.2875568e-18
v 0.33753280 3.6065971e-2 1.6993873e-18
v 0.22071040 0.47550837 1.1112178e-18
v 0.46209239 -0.84281883 -0.33572977
v 0.36758108 -0.40337643 -0.26706329
v 0.27306977 3.6065971e-2 -0.19839680
v 0.17855846 0.47550837 -0.12973032
v 0.17650359 -0.84281883 -0.54322218
v 0.14040348 -0.40337643 -0.43211747
v 0.10430337 3.6065971e-2 -0.32101277
v 6.8203264e-2 0.47550837 -0.20990806
v -0.17650359 -0.84281883 -0.54322218
v -0.14040348 -0.40337643 -0.43211747
v -0.10430337 3.6065971e-2 -0.32101277
v -6.8203264e-2 0.47550837 -0.20990806
v -0.46209239 -0.84281883 -0.33572977
v -0.36758108 -0.40337643 -0.26706329
v -0.27306977 3.6065971e-2 -0.19839680
v -0.17855846 0.47550837 -0.12973032
v -0.57117760 -0.84281883 7.2824808e-17
v -0.45435520 -0.40337643 5.7930021e-17
v -0.33753280 3.6065971e-2 4.3035234e-17
v -0.22071040 0.47550837 2.8140446e-17
v -0.46209239 -0.84281883 0.33572977
v -0.36758108 -0.40337643 0.26706329
v -0.27306977 3.6065971e-2 0.19839680
v -0.17855846 0.47550837 0.12973032
v -0.17650359 -0.84281883 0.54322218
v -0.14040348 -0.40337643 0.43211747
v -0.10430337 3.6065971e-2 0.32101277
v -6.8203264e-2 0.47550837 0.20990806
v 0.17650359 -0.84281883 0.54322218
v 0.14040348 -0.40337643 0.43211747
v 0.10430337 3.6065971e-2 0.32101277
v 6.8203264e-2 0.47550837 0.20990806
v 0.46209239 -0.84281883 0.33572977
v 0.36758108 -0.40337643 0.26706329
v 0.27306977 3.6065971e-2 0.19839680
v 0.17855846 0.47550837 0.12973032
v -0.78336000 -1.35982945 -0.78336000
v -0.78336000 -1.35982945 0.78336000
v -0.78336000 -1.28226123 -0.78336000
v -0.78336000 -1.28226123 0.78336000
v 0.78336000 -1.35982945 -0.78336000
v 0.78336000 -1.35982945 0.78336000
v 0.78336000 -1.28226123 -0.78336000
v 0.78336000 -1.28226123 0.78336000
vn -0.96229099 0.27202215 2.0244819e-16
vn -0.77850976 0.27202215 0.56562045
vn -0.29736427 0.27202215 0.91519312
vn 0.29736427 0.27202215 0.91519312
vn 0.77850976 0.27202215 0.56562045
vn 0.96229099 0.27202215 -5.7842340e-17
vn 0.77850976 0.27202215 -0.56562045
vn 0.29736427 0.27202215 -0.91519312
vn -0.29736427 0.27202215 -0.91519312
vn -0.77850976 0.27202215 -0.56562045
vn -0.78322620 -0.25048369 -0.56904714
vn -0.29916579 -0.25048369 -0.92073761
vn 0.29916579 -0.25048369 -0.92073761
vn 0.78322620 -0.25048369 -0.56904714
vn 0.96812082 -0.25048369 -7.2740956e-17
vn 0.78322620 -0.25048369 0.56904714
vn 0.29916579 -0.25048369 0.92073761
vn -0.29916579 -0.25048369 0.92073761
vn -0.78322620 -0.25048369 0.56904714
vn -0.96812082 -0.25048369 2.1822287e-16
vn -0.78322620 -0.25048369 -0.56904714
vn -0.29916579 -0.25048369 -0.92073761
vn 0.29916579 -0.25048369 -0.92073761
vn 0.78322620 -0.25048369 -0.56904714
vn 0.96812082 -0.25048369 -1.0183734e-16
vn 0.78322620 -0.25048369 0.56904714
vn 0.29916579 -0.25048369 0.92073761
vn -0.29916579 -0.25048369 0.92073761
vn -0.78322620 -0.25048369 0.56904714
vn -0.96812082 -0.25048369 1.7457830e-16
vn -0.96812082 -0.25048369 1.8912649e-16
vn -0.78322620 -0.25048369 0.56904714
vn -0.29916579 -0.25048369 0.92073761
vn 0.29916579 -0.25048369 0.92073761
vn 0.78322620 -0.25048369 0.56904714
vn 0.96812082 -0.25048369 -7.2740956e-17
vn 0.78322620 -0.25048369 -0.56904714
vn 0.29916579 -0.25048369 -0.92073761
vn -0.29916579 -0.25048369 -0.92073761
vn -0.78322620 -0.25048369 -0.56904714
vn -0.96812082 -0.25048369 2.3277106e-16
vn -0.78322620 -0.25048369 0.56904714
vn -0.29916579 -0.25048369 0.92073761
vn 0.29916579 -0.25048369 0.92073761
vn 0.78322620 -0.25048369 0.56904714
vn 0.96812082 -0.25048369 -7.2740956e-17
vn 0.78322620 -0.25048369 -0.56904714
vn 0.29916579 -0.25048369 -0.92073761
vn -0.29916579 -0.25048369 -0.92073761
vn -0.78322620 -0.25048369 -0.56904714
vn -0.78322620 -0.25048369 -0.56904714
vn -0.29916579 -0.25048369 -0.92073761
vn 0.29916579 -0.25048369 -0.92073761
vn 0.78322620 -0.25048369 -0.56904714
vn 0.96812082 -0.25048369 -1.1638553e-16
vn 0.78322620 -0.25048369 0.56904714
vn 0.29916579 -0.25048369 0.92073761
vn -0.29916579 -0.25048369 0.92073761
vn -0.78322620 -0.25048369 0.56904714
vn -0.96812082 -0.25048369 1.3093372e-16
vn 0.96643299 0.25691882 -1.0182137e-16
vn 0.96643299 0.25691882 -1.3091318e-16
vn 0.96643299 0.25691882 -1.8909682e-16
vn 0.96643299 0.25691882 -1.8909682e-16
vn 0.78186071 0.25691882 -0.56805506
vn 0.78186071 0.25691882 -0.56805506
vn 0.78186071 0.25691882 -0.56805506
vn 0.78186071 0.25691882 -0.56805506
vn 0.29864422 0.25691882 -0.91913239
vn 0.29864422 0.25691882 -0.91913239
vn 0.29864422 0.25691882 -0.91913239
vn 0.29864422 0.25691882 -0.91913239
vn -0.29864422 0.25691882 -0.91913239
vn -0.29864422 0.25691882 -0.91913239
vn -0.29864422 0.25691882 -0.91913239
vn -0.29864422 0.25691882 -0.91913239
vn -0.78186071 0.25691882 -0.56805506
vn -0.78186071 0.25691882 -0.56805506
vn -0.78186071 0.25691882 -0.56805506
vn -0.78186071 0.25691882 -0.56805506
vn -0.96643299 0.25691882 1.6000500e-16
vn -0.96643299 0.25691882 1.7455091e-16
vn -0.96643299 0.25691882 2.0364273e-16
vn -0.96643299 0.25691882 2.1818864e-16
vn -0.78186071 0.25691882 0.56805506
vn -0.78186071 0.25691882 0.56805506
vn -0.78186071 0.25691882 0.56805506
vn -0.78186071 0.25691882 0.56805506
vn -0.29864422 0.25691882 0.91913239
vn -0.29864422 0.25691882 0.91913239
vn -0.29864422 0.25691882 0.91913239
vn -0.29864422 0.25691882 0.91913239
vn 0.29864422 0.25691882 0.91913239
vn 0.29864422 0.25691882 0.91913239
vn 0.29864422 0.25691882 0.91913239
vn 0.29864422 0.25691882 0.91913239
vn 0.78186071 0.25691882 0.56805506
vn 0.78186071 0.25691882 0.56805506
vn 0.78186071 0.25691882 0.56805506
vn 0.78186071 0.25691882 0.56805506
vn 0.0000000e+0 -1.00000000 -1.5961535e-16
vn 0.96643299 0.25691882 -8.7275456e-17
vn 0.96643299 0.25691882 -8.7275456e-17
vn 0.0000000e+0 -1.00000000 -1.5961535e-16
vn 0.78186071 0.25691882 0.56805506
vn 0.78186071 0.25691882 0.56805506
vn 0.0000000e+0 -1.00000000 -1.5961535e-16
vn 0.29864422 0.25691882 0.91913239
vn 0.29864422 0.25691882 0.91913239
vn 0.0000000e+0 -1.00000000 -1.5961535e-16
vn -0.29864422 0.25691882 0.91913239
vn -0.29864422 0.25691882 0.91913239
vn 0.0000000e+0 -1.00000000 -1.5961535e-16
vn -0.78186071 0.25691882 0.56805506
vn -0.78186071 0.25691882 0.56805506
vn 0.0000000e+0 -1.00000000 -1.5961535e-16
vn -0.96643299 0.25691882 1.4545909e-16
vn -0.96643299 0.25691882 1.4545909e-16
vn 0.0000000e+0 -1.00000000 -1.5961535e-16
vn -0.78186071 0.25691882 -0.56805506
vn -0.78186071 0.25691882 -0.56805506
vn 0.0000000e+0 -1.00000000 -1.5961535e-16
vn -0.29864422 0.25691882 -0.91913239
vn -0.29864422 0.25691882 -0.91913239
vn 0.0000000e+0 -1.00000000 -1.5961535e-16
vn 0.29864422 0.25691882 -0.91913239
vn 0.29864422 0.25691882 -0.91913239
vn 0.0000000e+0 -1.00000000 -1.5961535e-16
vn 0.78186071 0.25691882 -0.56805506
vn 0.78186071 0.25691882 -0.56805506
vn 0.0000000e+0 1.00000000 0.0000000e+0
vn 0.0000000e+0 1.00000000 0.0000000e+0
vn 0.78186071 0.25691882 -0.56805506
vn 0.78186071 0.25691882 -0.56805506
vn 0.0000000e+0 1.00000000 0.0000000e+0
vn 0.0000000e+0 1.00000000 0.0000000e+0
vn 0.29864422 0.25691882 -0.91913239
vn 0.29864422 0.25691882 -0.91913239
vn 0.0000000e+0 1.00000000 0.0000000e+0
vn 0.0000000e+0 1.00000000 0.0000000e+0
vn -0.29864422 0.25691882 -0.91913239
vn -0.29864422 0.25691882 -0.91913239
vn 0.0000000e+0 1.00000000 0.0000000e+0
vn 0.0000000e+0 1.00000000 0.0000000e+0
vn -0.78186071 0.25691882 -0.56805506
vn -0.78186071 0.25691882 -0.56805506
vn 0.0000000e+0 1.00000000 0.0000000e+0
vn 0.0000000e+0 1.00000000 0.0000000e+0
vn -0.96643299 0.25691882 1.7455091e-16
vn -0.96643299 0.25691882 1.7455091e-16
vn 0.0000000e+0 1.00000000 0.0000000e+0
vn 0.0000000e+0 1.00000000 0.0000000e+0
vn -0.78186071 0.25691882 0.56805506
vn -0.78186071 0.25691882 0.56805506
vn 0.0000000e+0 1.00000000 0.0000000e+0
vn 0.0000000e+0 1.00000000 0.0000000e+0
vn -0.29864422 0.25691882 0.91913239
vn -0.29864422 0.25691882 0.91913239
vn 0.0000000e+0 1.00000000 0.0000000e+0
vn 0.0000000e+0 1.00000000 0.0000000e+0
vn 0.29864422 0.25691882 0.91913239
vn 0.29864422 0.25691882 0.91913239
vn 0.0000000e+0 1.00000000 0.0000000e+0
vn 0.0000000e+0 1.00000000 0.0000000e+0
vn 0.78186071 0.25691882 0.56805506
vn 0.78186071 0.25691882 0.56805506
vn 0.0000000e+0 1.00000000 0.0000000e+0
vn 0.0000000e+0 1.00000000 0.0000000e+0
vn 0.96643299 0.25691882 -1.7455091e-16
vn 0.96643299 0.25691882 -1.7455091e-16
vn 0.0000000e+0 1.00000000 0.0000000e+0
vn 0.0000000e+0 1.00000000 0.0000000e+0
vn -0.96812082 -0.25048369 1.1638553e-16
vn -0.96812082 -0.25048369 1.1638553e-16
vn 0.0000000e+0 1.00000000 0.0000000e+0
vn 0.0000000e+0 1.00000000 0.0000000e+0
vn -0.78322620 -0.25048369 0.56904714
vn -0.78322620 -0.25048369 0.56904714
vn 0.0000000e+0 1.00000000 0.0000000e+0
vn 0.0000000e+0 1.00000000 0.0000000e+0
vn -0.29916579 -0.25048369 0.92073761
vn -0.29916579 -0.25048369 0.92073761
vn 0.0000000e+0 1.00000000 0.0000000e+0
vn 0.0000000e+0 1.00000000 0.0000000e+0
vn 0.29916579 -0.25048369 0.92073761
vn 0.29916579 -0.25048369 0.92073761
vn 0.0000000e+0 1.00000000 0.0000000e+0
vn 0.0000000e+0 1.00000000 0.0000000e+0
vn 0.78322620 -0.25048369 0.56904714
vn 0.78322620 -0.25048369 0.56904714
vn 0.0000000e+0 1.00000000 0.0000000e+0
vn 0.0000000e+0 1.00000000 0.0000000e+0
vn 0.96812082 -0.25048369 -1.1638553e-16
vn 0.96812082 -0.25048369 -1.1638553e-16
vn 0.0000000e+0 1.00000000 0.0000000e+0
vn 0.0000000e+0 1.00000000 0.0000000e+0
vn 0.78322620 -0.25048369 -0.56904714
vn 0.78322620 -0.25048369 -0.56904714
vn 0.0000000e+0 1.00000000 0.0000000e+0
vn 0.0000000e+0 1.00000000 0.0000000e+0
vn 0.29916579 -0.25048369 -0.92073761
vn 0.29916579 -0.25048369 -0.92073761
vn 0.0000000e+0 1.00000000 0.0000000e+0
vn 0.0000000e+0 1.00000000 0.0000000e+0
vn -0.29916579 -0.25048369 -0.92073761
vn -0.29916579 -0.25048369 -0.92073761
vn 0.0000000e+0 1.00000000 0.0000000e+0
vn 0.0000000e+0 1.00000000 0.0000000e+0
vn -0.78322620 -0.25048369 -0.56904714
vn -0.78322620 -0.25048369 -0.56904714
vn 8.0344780e-32 -1.00000000 -1.4172577e-16
vn 6.0233454e-16 7.1564293e-16 -1.00000000
vn -1.00000000 0.0000000e+0 -5.6690310e-16
vn 8.0344780e-32 -1.00000000 -1.4172577e-16
vn -6.0233454e-16 -7.1564293e-16 1.00000000
vn -1.00000000 0.0000000e+0 -5.6690310e-16
vn -8.0344780e-32 1.00000000 1.4172577e-16
vn 6.0233454e-16 7.1564293e-16 -1.00000000
vn -1.00000000 0.0000000e+0 -5.6690310e-16
vn -8.0344780e-32 1.00000000 1.4172577e-16
vn -6.0233454e-16 -7.1564293e-16 1.00000000
vn -1.00000000 0.0000000e+0 -5.6690310e-16
vn 8.0344780e-32 -1.00000000 -1.4172577e-16
vn 6.0233454e-16 7.1564293e-16 -1.00000000
vn 1.00000000 0.0000000e+0 5.6690310e-16
vn 8.0344780e-32 -1.00000000 -1.4172577e-16
vn -6.0233454e-16 -7.1564293e-16 1.00000000
vn 1.00000000 0.0000000e+0 5.6690310e-16
vn -8.0344780e-32 1.00000000 1.4172577e-16
vn 6.0233454e-16 7.1564293e-16 -1.00000000
vn 1.00000000 0.0000000e+0 5.6690310e-16
vn -8.0344780e-32 1.00000000 1.4172577e-16
vn -6.0233454e-16 -7.1564293e-16 1.00000000
vn 1.00000000 0.0000000e+0 5.6690310e-16
g cone1_default2
usemtl default2
s 1
f 2//104 3//107 4//110 5//113 6//116 7//119 8//122 9//125 10//128 1//101
f 11//131 22//175 21//171 20//167
f 12//135 23//179 22//176 11//132
f 13//139 24//183 23//180 12//136
f 14//143 25//187 24//184 13//140
f 15//147 26//191 25//188 14//144
f 16//151 27//195 26//192 15//148
f 17//155 28//199 27//196 16//152
f 18//159 29//203 28//200 17//156
f 19//163 30//207 29//204 18//160
f 20//168 21//172 30//208 19//164
f 132//215 136//227 138//233 134//221
f 133//218 137//230 135//224 131//212
s 2
f 1//102 91//61 127//97 2//105
f 2//106 127//97 123//93 3//108
f 3//109 123//93 119//89 4//111
f 4//112 119//89 115//85 5//114
f 5//115 115//85 111//81 6//117
f 6//118 111//81 107//77 7//120
f 7//121 107//77 103//73 8//123
f 8//124 103//73 99//69 9//126
f 9//127 99//69 95//65 10//129
f 10//130 95//65 91//61 1//103
f 11//133 98//68 102//72 12//138
f 12//137 102//72 106//76 13//142
f 13//141 106//76 110//80 14//146
f 14//145 110//80 114//84 15//150
f 15//149 114//84 118//88 16//154
f 16//153 118//88 122//92 17//158
f 17//157 122//92 126//96 18//162
f 18//161 126//96 130//100 19//166
f 19//165 130//100 94//64 20//169
f 20//170 94//64 98//68 11//134
f 21//174 90//60 81//51 30//210
f 22//177 89//59 90//60 21//173
f 23//181 88//58 89//59 22//178
f 24//185 87//57 88//58 23//182
f 25//189 86//56 87//57 24//186
f 26//193 85//55 86//56 25//190
f 27//197 84//54 85//55 26//194
f 28//201 83//53 84//54 27//198
f 29//205 82//52 83//53 28//202
f 30//209 81//51 82//52 29//206
f 31//1 61//31 62//32 32//2
f 32//2 33//3 34//4 35//5 36//6 37//7 38//8 39//9 40//10 31//1
f 32//2 62//32 63//33 33//3
f 33//3 63//33 64//34 34//4
f 34//4 64//34 65//35 35//5
f 35//5 65//35 66//36 36//6
f 36//6 66//36 67//37 37//7
f 37//7 67//37 68//38 38//8
f 38//8 68//38 69//39 39//9
f 39//9 69//39 70//40 40//10
f 40//10 70//40 61//31 31//1
f 41//11 50//20 61//31 70//40
f 41//11 80//50 71//41 50//20
f 42//12 79//49 80//50 41//11
f 43//13 78//48 79//49 42//12
f 44//14 77//47 78//48 43//13
f 45//15 76//46 77//47 44//14
f 46//16 75//45 76//46 45//15
f 47//17 74//44 75//45 46//16
f 48//18 73//43 74//44 47//17
f 49//19 72//42 73//43 48//18
f 50//20 71//41 72//42 49//19
f 51//21 81//51 90//60 60//30
f 52//22 82//52 81//51 51//21
f 53//23 83//53 82//52 52//22
f 54//24 84//54 83//53 53//23
f 55//25 85//55 84//54 54//24
f 56//26 86//56 85//55 55//25
f 57//27 87//57 86//56 56//26
f 58//28 88//58 87//57 57//27
f 59//29 89//59 88//58 58//28
f 60//30 90//60 89//59 59//29
f 62//32 61//31 50//20 49//19
f 63//33 62//32 49//19 48//18
f 64//34 63//33 48//18 47//17
f 65//35 64//34 47//17 46//16
f 66//36 65//35 46//16 45//15
f 67//37 66//36 45//15 44//14
f 68//38 67//37 44//14 43//13
f 69//39 68//38 43//13 42//12
f 70//40 69//39 42//12 41//11
f 92//62 96//66 97//67 93//63
f 93//63 129//99 128//98 92//62
f 96//66 100//70 101//71 97//67
f 100//70 104//74 105//75 101//71
f 104//74 108//78 109//79 105//75
f 108//78 112//82 113//83 109//79
f 112//82 116//86 117//87 113//83
f 116//86 120//90 121//91 117//87
f 120//90 124//94 125//95 121//91
f 124//94 128//98 129//99 125//95
f 131//211 135//223 136//226 132//214
f 134//220 138//232 137//229 133//217
s 3
f 132//216 134//222 133//219 131//213
f 135//225 137//231 138//234 136//228
g cone1_default3
usemtl default3
s 2
f 51//21 60//30 71//41 80//50
f 72//42 71//41 60//30 59//29
f 73//43 72//42 59//29 58//28
f 74//44 73//43 58//28 57//27
f 75//45 74//44 57//27 56//26
f 76//46 75//45 56//26 55//25
f 77//47 76//46 55//25 54//24
f 78//48 77//47 54//24 53//23
f 79//49 78//48 53//23 52//22
f 80//50 79//49 52//22 51//21
f 91//61 95//65 96//66 92//62
f 92//62 128//98 127//97 91//61
f 93//63 97//67 98//68 94//64
f 94//64 130//100 129//99 93//63
f 95//65 99//69 100//70 96//66
f 97//67 101//71 102//72 98//68
f 99//69 103//73 104//74 100//70
f 101//71 105//75 106//76 102//72
f 103//73 107//77 108//78 104//74
f 105//75 109//79 110//80 106//76
f 107//77 111//81 112//82 108//78
f 109//79 113//83 114//84 110//80
f 111//81 115//85 116//86 112//82
f 113//83 117//87 118//88 114//84
f 115//85 119//89 120//90 116//86
f 117//87 121//91 122//92 118//88
f 119//89 123//93 124//94 120//90
f 121//91 125//95 126//96 122//92
f 123//93 127//97 128//98 124//94
f 125//95 129//99 130//100 126//96
